<?xml version="1.0" standalone="no"?>
<!DOCTYPE svg PUBLIC "-//W3C//DTD SVG 20010904//EN"
 "http://www.w3.org/TR/2001/REC-SVG-20010904/DTD/svg10.dtd">
<svg version="1.0" xmlns="http://www.w3.org/2000/svg"
 width="804.000000pt" height="795.000000pt" viewBox="0 0 804.000000 795.000000"
 preserveAspectRatio="xMidYMid meet">

<g transform="translate(0.000000,795.000000) scale(0.100000,-0.100000)"
fill="#000000" stroke="none">
<path d="M1540 7930 c-349 -28 -614 -133 -910 -359 -305 -233 -521 -581 -606
-976 l-24 -110 0 -2480 0 -2480 24 -115 c27 -129 51 -220 71 -265 7 -16 16
-40 20 -53 3 -12 29 -68 56 -124 109 -220 293 -449 473 -586 201 -152 368
-239 591 -307 250 -76 31 -70 2785 -70 2321 0 2471 1 2562 18 378 70 673 221
928 476 289 289 443 600 506 1021 18 120 19 224 19 2485 l0 2360 -23 135 c-13
74 -32 167 -43 206 -23 83 -87 250 -122 321 -81 157 -272 400 -400 506 -235
195 -500 328 -732 367 -38 7 -90 17 -115 23 -53 13 -4903 19 -5060 7z m4400
-1404 c306 -85 562 -311 677 -597 52 -129 68 -217 67 -369 -1 -163 -28 -282
-98 -424 -147 -300 -494 -551 -761 -550 -50 1 -70 -2 -53 -7 126 -34 181 -199
114 -344 -38 -84 -75 -98 -278 -103 -134 -4 -158 -7 -162 -21 -20 -63 -85
-445 -120 -696 -55 -400 -59 -593 -15 -682 41 -82 116 -116 214 -94 112 25
185 100 226 231 24 79 42 100 85 100 69 0 78 -48 44 -214 -30 -147 -76 -232
-185 -341 -122 -123 -235 -175 -380 -175 -147 0 -248 52 -325 166 -70 106 -82
150 -87 334 -5 161 4 247 82 805 37 263 62 452 69 523 l6 62 -270 0 -269 0 -6
-42 c-83 -607 -171 -1202 -191 -1303 -73 -366 -191 -534 -378 -535 -84 0 -135
18 -182 66 -53 52 -68 98 -62 185 6 79 43 160 153 329 92 143 145 252 199 410
64 184 134 538 151 755 3 44 9 93 12 109 l5 29 -88 -6 c-136 -9 -222 -43 -325
-129 -51 -42 -70 -52 -109 -56 -56 -5 -84 8 -106 50 -33 64 10 180 118 315 94
119 179 179 338 239 l75 29 700 5 c404 3 675 8 640 13 -120 15 -310 110 -430
215 -91 78 -213 231 -258 324 -39 78 -77 195 -77 235 0 17 -6 23 -22 23 -13 1
-244 1 -515 2 -450 0 -494 -1 -521 -17 -45 -27 -58 -58 -91 -215 -17 -80 -53
-246 -81 -370 -28 -124 -62 -283 -76 -355 -32 -162 -104 -468 -234 -1000 -81
-328 -197 -835 -210 -911 -13 -84 -56 -164 -102 -192 -18 -11 -55 -26 -81 -33
-61 -15 -144 1 -185 36 -34 28 -107 166 -162 305 -23 58 -84 206 -137 330
-103 245 -113 269 -229 563 -43 109 -92 224 -109 255 -33 62 -41 66 -147 77
-71 8 -113 35 -152 98 -25 40 -30 59 -30 112 0 76 29 128 96 172 41 28 44 28
219 31 307 6 313 2 442 -319 47 -117 107 -263 131 -324 25 -60 46 -116 46
-123 0 -7 16 -55 36 -107 34 -88 58 -117 68 -82 12 37 287 1252 296 1307 11
60 72 336 190 848 27 116 55 222 61 235 27 53 65 91 113 113 l51 24 676 0 676
0 13 43 c30 103 116 244 204 336 160 168 333 266 556 316 105 24 330 14 450
-19z"/>
<path d="M4748 5383 c23 -2 59 -2 80 0 20 2 1 4 -43 4 -44 0 -61 -2 -37 -4z"/>
</g>
</svg>
